<svg width="176" height="60" viewBox="0 0 176 60" fill="none" xmlns="http://www.w3.org/2000/svg">
<g clip-path="url(#clip0_403_137)">
<path d="M165.875 16.5203C169.622 16.5203 172.659 13.503 172.659 9.78049C172.659 6.05798 169.622 3.04065 165.875 3.04065C162.128 3.04065 159.091 6.05798 159.091 9.78049C159.091 13.502 162.128 16.5203 165.875 16.5203Z" fill="#E94F30"/>
<path d="M159.093 20.5318V34.0115H138.742V20.5318H152.31V7.05215H138.742V-6.42856H125.174V7.05113H91.2531C83.7595 7.05113 77.6855 13.0868 77.6855 20.5308V34.0105H57.333V20.5318H70.9017V7.05215H57.333V-6.42856H43.7654V34.0115C43.7654 41.4566 49.8405 47.4912 57.333 47.4912H104.82C112.313 47.4912 118.387 41.4555 118.387 34.0115V20.5318H125.171V34.0115C125.171 41.4566 131.246 47.4912 138.739 47.4912H159.09C166.584 47.4912 172.658 41.4555 172.658 34.0115V20.5318H159.093ZM104.821 34.0115H91.2531V20.5318H104.821V34.0115Z" fill="#3E255E"/>
<path d="M3.05945 26.3429H9.84326H23.4109H36.9795V12.8571H23.4109H9.84326H3.05945V26.3429Z" fill="#3E255E"/>
</g>
<defs>
<clipPath id="clip0_403_137">
<rect width="175.714" height="60" fill="white"/>
</clipPath>
</defs>
</svg>
