<svg width="350" height="62" viewBox="0 0 350 62" fill="none" xmlns="http://www.w3.org/2000/svg">
<path d="M11.8828 4.125V61H0.164062V4.125H11.8828ZM34.5391 28.4219V37.5625H8.67969V28.4219H34.5391ZM37.2734 4.125V13.3047H8.67969V4.125H37.2734ZM67.5078 50.8828V18.7344H78.7578V61H68.1719L67.5078 50.8828ZM68.7578 42.2109L72.0781 42.1328C72.0781 44.9453 71.7526 47.5625 71.1016 49.9844C70.4505 52.3802 69.474 54.4635 68.1719 56.2344C66.8698 57.9792 65.2292 59.3464 63.25 60.3359C61.2708 61.2995 58.9401 61.7812 56.2578 61.7812C54.2005 61.7812 52.2995 61.4948 50.5547 60.9219C48.8359 60.3229 47.3516 59.3984 46.1016 58.1484C44.8776 56.8724 43.9141 55.2448 43.2109 53.2656C42.5339 51.2604 42.1953 48.8516 42.1953 46.0391V18.7344H53.4453V46.1172C53.4453 47.3672 53.5885 48.4219 53.875 49.2812C54.1875 50.1406 54.6172 50.8438 55.1641 51.3906C55.7109 51.9375 56.349 52.3281 57.0781 52.5625C57.8333 52.7969 58.6667 52.9141 59.5781 52.9141C61.8958 52.9141 63.7188 52.4453 65.0469 51.5078C66.401 50.5703 67.3516 49.2943 67.8984 47.6797C68.4714 46.0391 68.7578 44.2161 68.7578 42.2109ZM99.2266 1V61H87.9375V1H99.2266ZM120.398 1V61H109.109V1H120.398ZM179.93 46.1172C179.93 45.1016 179.773 44.1901 179.461 43.3828C179.174 42.5495 178.628 41.7943 177.82 41.1172C177.013 40.4141 175.88 39.724 174.422 39.0469C172.964 38.3698 171.076 37.6667 168.758 36.9375C166.18 36.1042 163.732 35.1667 161.414 34.125C159.122 33.0833 157.091 31.8724 155.32 30.4922C153.576 29.0859 152.195 27.4583 151.18 25.6094C150.19 23.7604 149.695 21.612 149.695 19.1641C149.695 16.7943 150.216 14.6458 151.258 12.7188C152.299 10.7656 153.758 9.09896 155.633 7.71875C157.508 6.3125 159.721 5.23177 162.273 4.47656C164.852 3.72135 167.677 3.34375 170.75 3.34375C174.943 3.34375 178.602 4.09896 181.727 5.60938C184.852 7.11979 187.273 9.1901 188.992 11.8203C190.737 14.4505 191.609 17.4583 191.609 20.8438H179.969C179.969 19.1771 179.617 17.7188 178.914 16.4688C178.237 15.1927 177.195 14.1901 175.789 13.4609C174.409 12.7318 172.664 12.3672 170.555 12.3672C168.523 12.3672 166.831 12.6797 165.477 13.3047C164.122 13.9036 163.107 14.724 162.43 15.7656C161.753 16.7812 161.414 17.9271 161.414 19.2031C161.414 20.1667 161.648 21.0391 162.117 21.8203C162.612 22.6016 163.341 23.3307 164.305 24.0078C165.268 24.6849 166.453 25.3229 167.859 25.9219C169.266 26.5208 170.893 27.1068 172.742 27.6797C175.841 28.6172 178.562 29.6719 180.906 30.8438C183.276 32.0156 185.255 33.3307 186.844 34.7891C188.432 36.2474 189.63 37.901 190.438 39.75C191.245 41.599 191.648 43.6953 191.648 46.0391C191.648 48.513 191.167 50.7266 190.203 52.6797C189.24 54.6328 187.846 56.2865 186.023 57.6406C184.201 58.9948 182.026 60.0234 179.5 60.7266C176.974 61.4297 174.148 61.7812 171.023 61.7812C168.211 61.7812 165.438 61.4167 162.703 60.6875C159.969 59.9323 157.482 58.7995 155.242 57.2891C153.029 55.7786 151.258 53.8516 149.93 51.5078C148.602 49.1641 147.938 46.3906 147.938 43.1875H159.695C159.695 44.9583 159.969 46.4557 160.516 47.6797C161.062 48.9036 161.831 49.8932 162.82 50.6484C163.836 51.4036 165.034 51.9505 166.414 52.2891C167.82 52.6276 169.357 52.7969 171.023 52.7969C173.055 52.7969 174.721 52.5104 176.023 51.9375C177.352 51.3646 178.328 50.5703 178.953 49.5547C179.604 48.5391 179.93 47.3932 179.93 46.1172ZM219.617 18.7344V26.7031H195.008V18.7344H219.617ZM201.102 8.30469H212.352V48.2656C212.352 49.4896 212.508 50.4271 212.82 51.0781C213.159 51.7292 213.654 52.1849 214.305 52.4453C214.956 52.6797 215.776 52.7969 216.766 52.7969C217.469 52.7969 218.094 52.7708 218.641 52.7188C219.214 52.6406 219.695 52.5625 220.086 52.4844L220.125 60.7656C219.161 61.0781 218.12 61.3255 217 61.5078C215.88 61.6901 214.643 61.7812 213.289 61.7812C210.815 61.7812 208.654 61.3776 206.805 60.5703C204.982 59.737 203.576 58.4089 202.586 56.5859C201.596 54.763 201.102 52.3672 201.102 49.3984V8.30469ZM248.836 51.4688V32.6406C248.836 31.2865 248.615 30.1276 248.172 29.1641C247.729 28.1745 247.039 27.4062 246.102 26.8594C245.19 26.3125 244.005 26.0391 242.547 26.0391C241.297 26.0391 240.216 26.2604 239.305 26.7031C238.393 27.1198 237.69 27.7318 237.195 28.5391C236.701 29.3203 236.453 30.2448 236.453 31.3125H225.203C225.203 29.5156 225.62 27.8099 226.453 26.1953C227.286 24.5807 228.497 23.1615 230.086 21.9375C231.674 20.6875 233.562 19.7109 235.75 19.0078C237.964 18.3047 240.438 17.9531 243.172 17.9531C246.453 17.9531 249.37 18.5 251.922 19.5938C254.474 20.6875 256.479 22.3281 257.938 24.5156C259.422 26.7031 260.164 29.4375 260.164 32.7188V50.8047C260.164 53.1224 260.307 55.0234 260.594 56.5078C260.88 57.9661 261.297 59.2422 261.844 60.3359V61H250.477C249.93 59.8542 249.513 58.4219 249.227 56.7031C248.966 54.9583 248.836 53.2135 248.836 51.4688ZM250.32 35.2578L250.398 41.625H244.109C242.625 41.625 241.336 41.7943 240.242 42.1328C239.148 42.4714 238.25 42.9531 237.547 43.5781C236.844 44.1771 236.323 44.8802 235.984 45.6875C235.672 46.4948 235.516 47.3802 235.516 48.3438C235.516 49.3073 235.737 50.1797 236.18 50.9609C236.622 51.7161 237.26 52.3151 238.094 52.7578C238.927 53.1745 239.904 53.3828 241.023 53.3828C242.716 53.3828 244.188 53.0443 245.438 52.3672C246.688 51.6901 247.651 50.8568 248.328 49.8672C249.031 48.8776 249.396 47.9401 249.422 47.0547L252.391 51.8203C251.974 52.888 251.401 53.9948 250.672 55.1406C249.969 56.2865 249.07 57.3672 247.977 58.3828C246.883 59.3724 245.568 60.1927 244.031 60.8438C242.495 61.4688 240.672 61.7812 238.562 61.7812C235.88 61.7812 233.445 61.2474 231.258 60.1797C229.096 59.0859 227.378 57.5885 226.102 55.6875C224.852 53.7604 224.227 51.5729 224.227 49.125C224.227 46.9115 224.643 44.9453 225.477 43.2266C226.31 41.5078 227.534 40.0625 229.148 38.8906C230.789 37.6927 232.833 36.7943 235.281 36.1953C237.729 35.5703 240.568 35.2578 243.797 35.2578H250.32ZM286.297 52.9922C287.677 52.9922 288.901 52.7318 289.969 52.2109C291.036 51.6641 291.87 50.9089 292.469 49.9453C293.094 48.9557 293.419 47.7969 293.445 46.4688H304.031C304.005 49.4375 303.211 52.0807 301.648 54.3984C300.086 56.6901 297.99 58.5 295.359 59.8281C292.729 61.1302 289.786 61.7812 286.531 61.7812C283.25 61.7812 280.385 61.2344 277.938 60.1406C275.516 59.0469 273.497 57.5365 271.883 55.6094C270.268 53.6562 269.057 51.3906 268.25 48.8125C267.443 46.2083 267.039 43.4219 267.039 40.4531V39.3203C267.039 36.3255 267.443 33.5391 268.25 30.9609C269.057 28.3568 270.268 26.0911 271.883 24.1641C273.497 22.2109 275.516 20.6875 277.938 19.5938C280.359 18.5 283.198 17.9531 286.453 17.9531C289.917 17.9531 292.951 18.6172 295.555 19.9453C298.185 21.2734 300.242 23.1745 301.727 25.6484C303.237 28.0964 304.005 31 304.031 34.3594H293.445C293.419 32.9531 293.12 31.6771 292.547 30.5312C292 29.3854 291.193 28.474 290.125 27.7969C289.083 27.0938 287.794 26.7422 286.258 26.7422C284.617 26.7422 283.276 27.0938 282.234 27.7969C281.193 28.474 280.385 29.4115 279.812 30.6094C279.24 31.7812 278.836 33.1224 278.602 34.6328C278.393 36.1172 278.289 37.6797 278.289 39.3203V40.4531C278.289 42.0938 278.393 43.6693 278.602 45.1797C278.81 46.6901 279.201 48.0312 279.773 49.2031C280.372 50.375 281.193 51.2995 282.234 51.9766C283.276 52.6536 284.63 52.9922 286.297 52.9922ZM321.805 0.960938V61H310.555V0.960938H321.805ZM348.445 18.7344L330.086 39.6719L320.242 49.6328L316.141 41.5078L323.953 31.5859L334.93 18.7344H348.445ZM336.766 61L324.266 41.4688L332.039 34.6719L349.734 61H336.766Z" fill="#3E255E"/>
</svg>
