<svg width="91" height="23" viewBox="0 0 91 23" fill="none" xmlns="http://www.w3.org/2000/svg">
<rect width="91" height="23" fill="#1F1F1F"/>
<g id="Desktop - 4" clip-path="url(#clip0_0_1)">
<rect width="1440" height="1024" transform="translate(-1301 -981)" fill="white"/>
<g id="Footer">
<rect id="Rectangle 14" x="-1301" y="-20" width="1440" height="63" fill="#E84F30"/>
<g id="Logos">
<path id="Vector" d="M10.7514 0.944214C4.96858 0.944214 0.279297 6.00434 0.279297 12.2465C0.279297 17.2402 3.27988 21.4768 7.44081 22.9713C7.96415 23.0759 8.15633 22.7261 8.15633 22.4276C8.15633 22.1581 8.14656 21.2677 8.14212 20.3233C5.22868 21.007 4.61393 18.9898 4.61393 18.9898C4.13757 17.6834 3.4512 17.3361 3.4512 17.3361C2.50111 16.6346 3.52282 16.6489 3.52282 16.6489C4.57443 16.7287 5.12816 17.8137 5.12816 17.8137C6.06215 19.5416 7.57796 19.042 8.17555 18.7533C8.26951 18.0227 8.54095 17.5242 8.8404 17.2419C6.51445 16.9561 4.06924 15.9869 4.06924 11.6562C4.06924 10.4223 4.47833 9.41405 5.14828 8.62256C5.03954 8.33784 4.68112 7.18833 5.24971 5.63152C5.24971 5.63152 6.12909 5.32774 8.1303 6.79007C8.96557 6.53956 9.86146 6.41405 10.7514 6.40979C11.6414 6.41405 12.5379 6.53956 13.3749 6.79007C15.3737 5.32774 16.2518 5.63152 16.2518 5.63152C16.8218 7.18833 16.4632 8.33784 16.3545 8.62256C17.0259 9.41405 17.4322 10.4223 17.4322 11.6562C17.4322 15.9972 14.9824 16.9531 12.6505 17.2329C13.0261 17.5836 13.3608 18.2715 13.3608 19.3259C13.3608 20.8381 13.3487 22.0553 13.3487 22.4276C13.3487 22.7283 13.5372 23.0808 14.0681 22.9698C18.2267 21.4736 21.2235 17.2386 21.2235 12.2465C21.2235 6.00434 16.5349 0.944214 10.7514 0.944214Z" fill="#070707"/>
<path id="Vector_2" d="M34.4512 3.50517C34.4512 2.76285 34.6995 2.15045 35.196 1.66796C35.6925 1.18546 36.338 0.944214 37.1325 0.944214C37.9128 0.944214 38.5441 1.18174 39.0265 1.65683C39.523 2.14675 39.7713 2.78512 39.7713 3.57198C39.7713 4.28459 39.5301 4.87842 39.0477 5.35352C38.5512 5.84344 37.8986 6.0884 37.0899 6.0884H37.0687C36.2884 6.0884 35.6571 5.84344 35.1747 5.35352C34.6923 4.86359 34.4512 4.24747 34.4512 3.50517ZM34.7278 22.9907V8.1149H39.4521V22.9907H34.7278ZM42.0696 22.9907H46.7938V14.6843C46.7938 14.1647 46.8506 13.7638 46.9641 13.4818C47.1627 12.977 47.4641 12.5502 47.8685 12.2013C48.2728 11.8524 48.78 11.678 49.39 11.678C50.979 11.678 51.7734 12.7988 51.7734 15.0406V22.9907H56.4977V14.4616C56.4977 12.2644 56.0011 10.5979 55.0081 9.46218C54.015 8.32645 52.7027 7.75859 51.0712 7.75859C49.2411 7.75859 47.8153 8.58255 46.7938 10.2305V10.275H46.7725L46.7938 10.2305V8.1149H42.0696C42.0979 8.58997 42.1121 10.0671 42.1121 12.5465C42.1121 15.0258 42.0979 18.5072 42.0696 22.9907Z" fill="#070707"/>
<path id="Vector_3" fill-rule="evenodd" clip-rule="evenodd" d="M87.6183 4.14806C85.6494 2.08314 83.031 0.945374 80.2414 0.944214C74.4935 0.944214 69.8153 5.84464 69.813 11.8681C69.8123 13.7935 70.2925 15.673 71.205 17.3296L69.7256 22.9907L75.2538 21.4716C76.777 22.3419 78.4919 22.8005 80.2372 22.8013H80.2415C85.9889 22.8013 90.6674 17.9003 90.6698 11.8768C90.6709 8.95775 89.5872 6.21298 87.6183 4.14806ZM80.2415 20.9562H80.238C78.6827 20.9556 77.1572 20.5179 75.8265 19.6906L75.5099 19.4938L72.2294 20.3953L73.1051 17.0446L72.899 16.7011C72.0313 15.2554 71.5731 13.5844 71.5737 11.8688C71.5756 6.86233 75.4639 2.7893 80.245 2.7893C82.56 2.79022 84.7363 3.73595 86.3728 5.45223C88.0092 7.16852 88.91 9.44988 88.9091 11.8761C88.9071 16.8829 85.0188 20.9562 80.2415 20.9562ZM84.9959 14.1557C84.7353 14.0191 83.4542 13.3587 83.2154 13.2676C82.9765 13.1765 82.8029 13.131 82.6291 13.4043C82.4554 13.6775 81.9561 14.2924 81.804 14.4746C81.6521 14.6567 81.5001 14.6795 81.2395 14.5429C80.9789 14.4063 80.1393 14.118 79.1441 13.1881C78.3695 12.4643 77.8465 11.5703 77.6945 11.2971C77.5425 11.0238 77.6784 10.876 77.8088 10.74C77.926 10.6177 78.0693 10.4212 78.1996 10.2617C78.3299 10.1024 78.3733 9.9885 78.4602 9.80634C78.547 9.62415 78.5036 9.46473 78.4385 9.3281C78.3733 9.19148 77.8522 7.8479 77.6351 7.30137C77.4236 6.76909 77.2088 6.84111 77.0488 6.83278C76.897 6.82486 76.7231 6.82316 76.5494 6.82316C76.3757 6.82316 76.0934 6.89149 75.8546 7.16474C75.6157 7.43802 74.9426 8.09841 74.9426 9.44196C74.9426 10.7855 75.8763 12.0835 76.0066 12.2657C76.1369 12.4479 77.8439 15.2051 80.4578 16.3874C81.0795 16.6687 81.5648 16.8366 81.9433 16.9625C82.5675 17.1702 83.1355 17.1409 83.5845 17.0706C84.0851 16.9922 85.1261 16.4102 85.3433 15.7726C85.5604 15.135 85.5604 14.5884 85.4953 14.4746C85.4301 14.3607 85.2564 14.2924 84.9959 14.1557Z" fill="#070707"/>
</g>
</g>
</g>
<defs>
<clipPath id="clip0_0_1">
<rect width="1440" height="1024" fill="white" transform="translate(-1301 -981)"/>
</clipPath>
</defs>
</svg>
